<?xml version="1.0" standalone="no"?>
<!DOCTYPE svg PUBLIC "-//W3C//DTD SVG 20010904//EN"
 "http://www.w3.org/TR/2001/REC-SVG-20010904/DTD/svg10.dtd">
<svg version="1.0" fill="currentColor" xmlns="http://www.w3.org/2000/svg"
 width="1024.000000pt" height="406.000000pt" viewBox="0 0 1024.000000 406.000000"
 preserveAspectRatio="xMidYMid meet">

<g transform="translate(0.000000,406.000000) scale(0.100000,-0.100000)"
fill="currentColor" stroke="none">
<path d="M5042 3733 c-280 -565 -607 -1285 -1008 -2215 l-33 -77 151 -86 c83
-47 154 -85 157 -85 3 0 37 74 75 163 369 862 879 1959 1075 2313 l50 91 -149
107 c-82 58 -151 106 -155 106 -3 0 -77 -143 -163 -317z"/>
<path d="M5911 3998 c-30 -48 -382 -753 -471 -943 -125 -269 -263 -576 -372
-830 -116 -269 -328 -794 -328 -811 0 -7 35 -32 78 -55 42 -23 111 -64 154
-90 l76 -47 25 57 c14 31 82 205 152 386 356 928 620 1508 898 1967 59 97 107
179 107 182 0 6 -289 206 -298 206 -4 0 -14 -10 -21 -22z"/>
<path d="M2125 3905 c-456 -50 -880 -199 -1225 -428 -206 -138 -436 -348 -560
-512 -163 -216 -271 -467 -315 -734 -23 -138 -16 -352 15 -461 105 -364 458
-554 873 -469 187 38 406 141 583 275 46 34 89 66 94 69 37 23 -229 -466 -412
-758 -27 -44 -48 -80 -46 -82 42 -41 344 -272 349 -267 4 4 21 45 37 92 191
544 588 1309 993 1916 l88 132 -142 129 c-78 71 -148 132 -154 137 -7 4 -63
-4 -125 -18 -204 -46 -624 -96 -803 -96 -42 0 -68 -5 -78 -14 -11 -11 -16 -58
-22 -181 -4 -92 -4 -169 -1 -173 4 -3 62 -8 129 -10 130 -4 281 12 470 49 59
12 110 19 113 16 13 -13 -127 -199 -229 -304 -204 -210 -420 -350 -703 -454
-82 -30 -98 -33 -204 -33 -143 0 -209 23 -280 94 -74 73 -94 137 -94 290 0
152 27 264 102 423 287 608 948 965 1838 994 l192 6 -38 78 c-20 42 -54 129
-75 193 l-38 116 -106 -1 c-58 -1 -160 -7 -226 -14z"/>
<path d="M3715 3232 c-633 -325 -1096 -749 -1314 -1202 -78 -162 -104 -261
-104 -400 -1 -146 21 -209 97 -285 191 -192 529 -63 975 370 105 102 120 114
103 80 -28 -56 -115 -264 -151 -363 l-31 -82 159 -80 159 -79 6 25 c12 48 139
370 226 574 123 288 239 537 413 890 83 168 151 309 151 313 1 4 -63 42 -141
83 l-141 74 -52 -97 c-128 -245 -431 -616 -834 -1018 -303 -303 -419 -390
-509 -383 -58 4 -69 28 -51 118 42 222 282 499 717 827 142 107 417 291 565
379 45 27 82 52 82 57 0 14 -123 297 -129 297 -3 0 -91 -44 -196 -98z"/>
<path d="M6670 3226 c-222 -51 -405 -159 -596 -350 -218 -219 -379 -505 -482
-858 -53 -180 -65 -321 -37 -450 57 -269 250 -360 587 -274 126 32 271 89 338
133 115 75 296 243 387 359 l32 41 -131 107 -131 107 -30 -38 c-57 -71 -232
-244 -292 -290 -172 -131 -334 -141 -391 -25 -27 54 -23 156 10 262 27 85 162
370 176 370 4 0 17 -35 29 -77 12 -43 29 -102 38 -131 l15 -54 36 7 c90 17
313 100 430 160 264 135 444 309 548 528 48 102 61 172 46 244 -21 99 -88 170
-202 215 -45 17 -80 22 -190 24 -84 2 -156 -2 -190 -10z m198 -338 c22 -22 14
-81 -17 -130 -37 -58 -129 -124 -262 -188 -105 -50 -371 -144 -390 -138 -16 5
221 249 319 328 119 96 208 140 281 140 32 0 62 -5 69 -12z"/>
<path d="M9121 3118 c-235 -547 -585 -1282 -712 -1497 -32 -55 -59 -104 -59
-109 0 -10 244 -232 254 -232 11 0 238 154 426 288 190 136 337 250 414 322
27 25 47 41 45 35 -12 -31 -240 -474 -347 -675 -197 -372 -402 -730 -545 -952
-21 -31 -37 -61 -37 -66 0 -9 295 -222 308 -222 4 0 47 75 96 168 537 1009
978 1803 1187 2137 l87 140 -31 258 c-17 141 -34 256 -37 255 -3 -2 -67 -69
-142 -149 -255 -272 -561 -556 -802 -744 -98 -76 -348 -246 -354 -240 -2 2 52
97 121 212 225 378 368 647 417 788 l21 60 -78 73 c-43 40 -108 100 -145 134
l-68 60 -19 -44z"/>
<path d="M7721 3037 c-217 -551 -523 -1203 -727 -1545 -52 -86 -94 -159 -94
-162 0 -12 352 -152 359 -143 4 4 15 35 25 68 10 33 37 105 61 160 236 546
732 1043 1353 1356 70 35 128 65 130 65 7 3 -184 304 -192 304 -14 0 -220
-125 -341 -208 -129 -88 -194 -140 -292 -236 -40 -38 -74 -68 -77 -65 -2 2 36
87 85 188 49 101 88 185 87 187 -7 6 -319 144 -325 144 -5 0 -28 -51 -52 -113z"/>
</g>
</svg>
